<?xml version="1.0" encoding="utf-8"?>
<!-- Generator: Adobe Illustrator 18.0.0, SVG Export Plug-In . SVG Version: 6.00 Build 0)  -->
<svg version="1.1" id="Layer_1" xmlns="http://www.w3.org/2000/svg" xmlns:xlink="http://www.w3.org/1999/xlink" x="0px" y="0px"
	 viewBox="0 0 30 30" enable-background="new 0 0 30 30" xml:space="preserve">
<path fill="#FFFFFF" d="M13.9,6.4h14.9v-1H14.1c0-0.1,0-0.2,0-0.3c0.1-1.4,0-2.5-0.4-3.5C13.4,0.8,12.9,0.3,12,0L12,0l-0.6,0.1
	l-0.1,0c-1.2,0.6-1.7,1.7-2.1,2.8C9,3.5,8.8,4.2,8.7,4.7C8.7,4.9,8.7,5.2,8.7,5.4H3.9v1h4.9c0.1,0.3,0.2,0.7,0.3,1
	C9.3,7.9,9.6,8.4,9.8,9l0.1,0.2c0,0.1,0,0.1,0,0.2L9.4,10c-0.2,0.3-0.5,0.6-0.7,0.9H3.9v1H8c-0.1,0.1-0.2,0.3-0.3,0.4
	c-0.9,1.3-1.4,2.7-1.5,4.1H3.9v1h2.3l0,0.4l0.1,0.8l0.1,0.3c0.1,0.2,0.2,0.4,0.2,0.6c0.4,1,1.2,1.9,2.1,2.5H3.9v1h7.4
	c0.4,0.1,0.8,0.1,1.1,0.1c0.2,0,0.5,0,0.7-0.1h1.3c0,0.1,0.1,0.3,0.1,0.4c0.1,0.3,0.1,0.6,0.2,0.9c0.2,0.7,0.4,1.5,0.5,2.2
	c0.1,0.7,0,1.3-0.4,1.8c-0.3,0.4-0.7,0.6-1.3,0.8c-0.2,0-0.3,0.1-0.5,0.1c0.1-0.1,0.1-0.2,0.2-0.2c0.1-0.1,0.3-0.3,0.4-0.4
	c0.5-0.6,0.5-1.3,0-2.1c-0.4-0.7-1.1-1.1-1.9-1c-0.8,0.1-1.4,0.5-1.7,1.3c-0.4,1,0,1.9,0.9,2.6c0.6,0.4,1.1,0.6,1.7,0.6
	c0.1,0,0.2,0,0.3,0l0.1,0l0.9-0.1l0.1,0c0.1,0,0.2-0.1,0.3-0.1c0.2-0.1,0.4-0.2,0.6-0.3c0.9-0.6,1.3-1.4,1.4-2.7
	c0-0.7-0.2-1.3-0.3-1.9l-0.1-0.3c-0.2-0.5-0.3-1-0.5-1.5h13.6v-1H15.9c0.5-0.3,0.9-0.6,1.2-1.1c0.7-1,1-2.1,1-3.3c0,0,0-0.1,0-0.1
	l0-0.1h10.7v-1H18c-0.1-0.1-0.1-0.3-0.2-0.4c-0.1-0.3-0.3-0.6-0.5-0.9c-1-1.3-2.3-1.9-3.9-1.8c-0.3,0-0.5,0.1-0.8,0.1
	c-0.1,0-0.2,0.1-0.3,0.1l-0.4-1.4c0-0.1-0.1-0.2-0.1-0.3h17.1v-1H11.7c0.7-1.1,1.3-2.2,1.8-3.3C13.6,7.2,13.8,6.8,13.9,6.4z
	 M13,15.9L13,15.9c0.6-0.1,1.1-0.1,1.6,0.2c0.2,0.1,0.4,0.2,0.6,0.4h-2L13,15.9z M15.9,17.4c0.1,0.3,0.2,0.5,0.2,0.9
	c0,0.5,0,0.9,0,1.3c-0.1,0.8-0.5,1.4-1.3,1.9l-1.3-4H15.9z M12.4,16.5h-0.5c0.1-0.1,0.2-0.2,0.4-0.3L12.4,16.5z M9.4,18.4
	c0.2,1,0.8,1.7,1.8,2.2c0.3,0.1,0.6,0.2,0.9,0.3l0.1,0c0.1,0,0.2,0,0.3-0.1c0,0,0.1,0,0.1,0l0.2-0.1l0-0.2l-0.1-0.2l-0.1-0.1
	c-0.1,0-0.1,0-0.2-0.1c-0.7-0.2-1.1-0.6-1.3-1.4c-0.1-0.4,0-0.9,0.1-1.3h1.5l1.4,4.4c-0.1,0.1-0.2,0.1-0.4,0.1c-0.1,0-0.3,0-0.4,0
	H12c-0.6,0-1.1-0.2-1.6-0.4c-1-0.4-1.6-1.2-2-2.3c-0.2-0.6-0.3-1.1-0.4-1.7c0,0,0-0.1,0-0.1h1.2C9.3,17.8,9.3,18.1,9.4,18.4z
	 M9.5,16.5H8.4c0.1-0.2,0.2-0.4,0.3-0.6c0.5-0.9,1-1.7,1.6-2.7c0.2-0.3,0.4-0.6,0.6-0.9l0.1-0.2l0.5,1.4c0,0.1,0.1,0.3,0.1,0.5
	C10.5,14.5,9.8,15.4,9.5,16.5z M12.5,5.4h-2.1c0.1-1,0.3-2,0.9-2.8c0.1-0.1,0.2-0.2,0.4-0.3C11.8,2.2,12,2,12.1,1.9l0,0
	c0.2,0.2,0.3,0.4,0.4,0.7c0.2,0.6,0.3,1.3,0.2,1.8C12.7,4.7,12.6,5.1,12.5,5.4z M10.2,6.4H12c-0.3,0.5-0.7,1-1.1,1.6l-0.3,0.4
	C10.3,7.6,10.1,7,10.2,6.4z"/>
</svg>
