<?xml version="1.0" encoding="UTF-8" standalone="no"?>
<svg width="19px" height="19px" viewBox="0 0 19 19" version="1.1" xmlns="http://www.w3.org/2000/svg" xmlns:xlink="http://www.w3.org/1999/xlink" xmlns:sketch="http://www.bohemiancoding.com/sketch/ns">
    <!-- Generator: Sketch 3.3.3 (12072) - http://www.bohemiancoding.com/sketch -->
    <title>scaling_icon2</title>
    <desc>Created with Sketch.</desc>
    <defs></defs>
    <g id="Page-1" stroke="none" stroke-width="1" fill="none" fill-rule="evenodd" sketch:type="MSPage">
        <g id="scaling_icon2" sketch:type="MSLayerGroup" transform="translate(9.500000, 9.500000) rotate(-90.000000) translate(-9.500000, -9.500000) ">
            <g id="Group" sketch:type="MSShapeGroup">
                <path d="M17.7,12 L17.7,0.5 L6.2,0.5 L10.3,4.5 L4.5,10.3 L0.5,6.2 L0.5,17.7 L12,17.7 L7.9,13.7 L13.7,7.9 L17.7,12 Z" id="Shape" fill="#000000"></path>
                <path d="M12,18.1 L12,18.1 L0.5,18.1 C0.3,18.1 0.1,17.9 0.1,17.7 L0.1,6.2 C0.1,6.1 0.2,5.9 0.3,5.9 C0.4,5.8 0.6,5.9 0.7,6 L4.5,9.8 L9.8,4.5 L6,0.7 C5.9,0.6 5.8,0.5 5.9,0.3 C6,0.2 6.1,0.1 6.2,0.1 L17.7,0.1 C17.9,0.1 18.1,0.3 18.1,0.5 L18.1,12 C18.1,12.1 18,12.3 17.9,12.3 C17.8,12.4 17.6,12.3 17.5,12.2 L13.7,8.4 L8.4,13.7 L12.2,17.4 C12.3,17.5 12.4,17.6 12.4,17.7 C12.4,17.9 12.2,18.1 12,18.1 L12,18.1 Z M0.8,17.4 L11.1,17.4 L7.7,14 C7.6,13.9 7.6,13.6 7.7,13.5 L13.5,7.7 C13.6,7.6 13.9,7.6 14,7.7 L17.4,11.1 L17.4,0.8 L7.1,0.8 L10.5,4.2 C10.6,4.3 10.6,4.6 10.5,4.7 L4.7,10.5 C4.6,10.6 4.3,10.6 4.2,10.5 L0.8,7.1 L0.8,17.4 L0.8,17.4 Z" id="Shape" fill="#FFFFFF"></path>
            </g>
        </g>
    </g>
</svg>