<?xml version="1.0" encoding="utf-8"?>
<!-- Generator: Adobe Illustrator 18.1.1, SVG Export Plug-In . SVG Version: 6.00 Build 0)  -->
<svg version="1.1" id="Layer_1" xmlns="http://www.w3.org/2000/svg" xmlns:xlink="http://www.w3.org/1999/xlink" x="0px" y="0px"
	 viewBox="0 0 30 30" enable-background="new 0 0 30 30" xml:space="preserve">
<path fill="#FFFFFF" d="M12.1,10.7c0.2-0.2,0.3-0.4,0.5-0.6c0.1-0.1,0.2-0.3,0.3-0.4c0.4-0.5,0.8-1.1,1-1.8h13V7H14.2
	c0.1-0.2,0.1-0.5,0.1-0.8l0-0.1c0-0.2,0-0.4,0.1-0.5c0-0.2,0-0.4,0-0.6c0-0.4,0-0.8,0-1.3c0-0.5-0.1-0.9-0.2-1.4
	c-0.1-0.5-0.3-1-0.5-1.4c-0.2-0.3-0.3-0.5-0.5-0.8C13,0,12.8,0,12.6,0c-0.1,0-0.3,0.1-0.4,0.1c-0.2,0.1-0.3,0.2-0.5,0.3
	c-0.3,0.3-0.6,0.7-0.9,1.1C10,2.9,9.6,4.4,9.6,5.9c0,0.4,0,0.7,0,1.1H2.9v1h6.8c0,0.3,0.1,0.6,0.1,0.9l0,0.3c-0.1,0-0.1,0.1-0.2,0.1
	L9.7,9.4C9.4,9.7,9,10,8.7,10.4C8.4,10.6,8.2,10.8,8,11c-0.5,0.5-0.9,0.9-1.3,1.3H2.9v1H6c-0.3,0.4-0.5,0.8-0.7,1.3
	c-0.3,0.7-0.4,1.3-0.5,2c0,0.4,0,0.7,0,1.1h-2v1h2.2c0.1,0.2,0.1,0.5,0.2,0.7C5.6,20,6,20.6,6.4,21c0.6,0.7,1.3,1.2,2.1,1.6
	C8.8,22.8,9,22.9,9.3,23H2.9v1h9l0.1,0.8c0,0.2,0.1,0.5,0.1,0.7c0.1,0.5,0.1,0.8,0.1,1.2c0,0.3-0.1,0.6-0.2,0.9
	c-0.2,0.6-0.7,1.1-1.3,1.3c-0.4,0.1-0.9,0.1-1.4,0c-0.2,0-0.4-0.1-0.5-0.2c0.2,0,0.4-0.1,0.5-0.1c0.5-0.2,0.8-0.6,1-1.1
	c0.1-0.3,0.1-0.6,0-0.9c-0.1-0.4-0.3-0.8-0.6-1.1c-0.4-0.4-1-0.6-1.6-0.5c-0.4,0.1-0.8,0.3-1.1,0.7c-0.3,0.4-0.5,0.9-0.5,1.4
	c0,0.6,0.2,1.1,0.5,1.6c0.5,0.7,1.2,1.1,2.2,1.3c0.1,0,0.3,0,0.5,0c0.1,0,0.3,0,0.5,0c0.4,0,0.8-0.1,1.1-0.3
	c0.8-0.3,1.3-0.9,1.6-1.7c0.2-0.5,0.3-1.1,0.2-1.7c0-0.3-0.1-0.5-0.1-0.8c0-0.1,0-0.2,0-0.3c0-0.2-0.1-0.5-0.1-0.7l-0.1-0.4
	c0,0,0-0.1,0-0.1h14.1v-1H12.7c0,0,0,0,0-0.1c0.3-0.1,0.6-0.3,0.9-0.4c1.3-0.8,2-1.9,2.1-3.4c0-0.1,0-0.3,0-0.5h11.2v-1H15.6
	c-0.1-0.3-0.2-0.6-0.3-0.9c-0.4-1-1.2-1.7-2.2-2.1c-0.5-0.2-1-0.3-1.5-0.2l0,0c0-0.2-0.1-0.5-0.1-0.7l0-0.3h15.5v-1H11.3
	c0-0.2-0.1-0.5-0.1-0.7C11.5,11.3,11.8,11,12.1,10.7z M10.5,13.6l0.1,1c-0.8,0.3-1.4,0.7-1.9,1.4c-0.4,0.5-0.6,1.1-0.7,1.7
	c-0.2,1,0.1,2,0.8,2.8c0.3,0.4,0.7,0.6,1.1,0.7c0.1,0.1,0.3,0.1,0.4,0.1c0,0,0,0,0,0c0.1,0,0.2-0.1,0.3-0.1c0.1-0.1,0.1-0.3,0-0.4
	c-0.1,0-0.1-0.1-0.2-0.1c-0.2-0.1-0.4-0.2-0.5-0.4c-0.2-0.2-0.4-0.6-0.4-0.9c-0.1-0.6,0-1.1,0.4-1.7c0.3-0.4,0.6-0.6,1.1-0.7
	l0.7,5.3c-0.4,0.1-0.9,0.1-1.4,0.1c-0.3,0-0.6-0.1-1-0.2C8.6,21.9,8,21.5,7.5,21c-0.6-0.6-0.9-1.3-1.1-2.1c-0.1-0.4-0.1-0.7,0-1.1
	c0.1-0.8,0.4-1.6,0.9-2.3c0.3-0.4,0.6-0.9,1.1-1.3c0.5-0.5,0.9-0.9,1.4-1.3c0.2-0.2,0.4-0.3,0.5-0.5l0,0c0,0.1,0,0.2,0,0.2
	c0,0.1,0,0.2,0,0.3C10.4,13.2,10.5,13.4,10.5,13.6z M10.7,6.8C10.7,5.9,11,5,11.5,4.1c0.2-0.3,0.3-0.5,0.5-0.8
	c0.1-0.1,0.3-0.2,0.4-0.3C12.5,3,12.6,3,12.8,3c0,0,0.1,0,0.1,0c0.2,0,0.3,0.1,0.4,0.3c0.1,0.1,0.1,0.3,0.1,0.4c0,0.3,0,0.6-0.1,1
	c-0.2,0.9-0.6,1.7-1.2,2.4c-0.4,0.5-0.9,1-1.3,1.4l0-0.1c0-0.2-0.1-0.4-0.1-0.6C10.6,7.5,10.6,7.2,10.7,6.8z M12.6,21.9l-0.7-5.1
	c0.6,0.1,1.1,0.3,1.5,0.8c0.4,0.4,0.6,0.8,0.7,1.3c0.1,0.6,0,1.2-0.2,1.8C13.6,21.2,13.2,21.7,12.6,21.9
	C12.6,21.9,12.6,21.9,12.6,21.9z"/>
</svg>
