<?xml version="1.0" encoding="utf-8"?>
<!-- Generator: Adobe Illustrator 18.0.0, SVG Export Plug-In . SVG Version: 6.00 Build 0)  -->
<svg version="1.1" id="Layer_1" xmlns="http://www.w3.org/2000/svg" xmlns:xlink="http://www.w3.org/1999/xlink" x="0px" y="0px"
	 viewBox="0 0 30 30" enable-background="new 0 0 30 30" xml:space="preserve">
<g>
	<path fill="#FFFFFF" d="M20.6,7.7V2.5H10.5v5.2H3.2v19.8h25V7.7H20.6z M12.7,4.7h5.6v2.2h-5.6V4.7z M15.7,25.4
		c-4.3,0-7.7-3.5-7.7-7.7c0-4.3,3.5-7.7,7.7-7.7c4.3,0,7.7,3.5,7.7,7.7C23.4,21.9,19.9,25.4,15.7,25.4z"/>
	<path fill="#FFFFFF" d="M15.7,11.6c-3.3,0-6,2.7-6,6s2.7,6,6,6s6-2.7,6-6S19,11.6,15.7,11.6z M15.7,22c-2.4,0-4.4-2-4.4-4.4
		c0-0.7,0.2-1.3,0.5-1.9c0.2,0.8,1,1.4,1.8,1.4c1.1,0,1.9-0.9,1.9-1.9c0-0.8-0.5-1.5-1.2-1.8c0.4-0.1,0.8-0.2,1.3-0.2
		c2.4,0,4.4,2,4.4,4.4S18.1,22,15.7,22z"/>
</g>
</svg>
