<?xml version="1.0" encoding="utf-8"?>
<!-- Generator: Adobe Illustrator 18.1.1, SVG Export Plug-In . SVG Version: 6.00 Build 0)  -->
<svg version="1.1" id="Layer_1" xmlns="http://www.w3.org/2000/svg" xmlns:xlink="http://www.w3.org/1999/xlink" x="0px" y="0px"
	 viewBox="0 0 30 30" enable-background="new 0 0 30 30" xml:space="preserve">
<g>
	<path fill="#FFFFFF" d="M19.9,7V2h-10v5h-7v20h24V7H19.9z M11.9,4h6v3h-6V4z M14.9,25c-4.4,0-8-3.6-8-8c0-4.4,3.6-8,8-8
		c4.4,0,8,3.6,8,8C22.9,21.4,19.3,25,14.9,25z"/>
	<path fill="#FFFFFF" d="M14.9,10.8c-3.4,0-6.2,2.8-6.2,6.2s2.8,6.2,6.2,6.2s6.2-2.8,6.2-6.2S18.4,10.8,14.9,10.8z M14.9,21.5
		c-2.5,0-4.5-2-4.5-4.5c0-0.7,0.2-1.4,0.5-2c0.2,0.9,1,1.5,1.9,1.5c1.1,0,2-0.9,2-2c0-0.8-0.5-1.5-1.2-1.8c0.4-0.1,0.9-0.2,1.4-0.2
		c2.5,0,4.5,2,4.5,4.5S17.4,21.5,14.9,21.5z"/>
</g>
</svg>
