<?xml version="1.0" encoding="utf-8"?>
<!-- Generator: Adobe Illustrator 18.1.1, SVG Export Plug-In . SVG Version: 6.00 Build 0)  -->
<svg version="1.1" id="Layer_1" xmlns="http://www.w3.org/2000/svg" xmlns:xlink="http://www.w3.org/1999/xlink" x="0px" y="0px"
	 viewBox="0 0 30 30" enable-background="new 0 0 30 30" xml:space="preserve">
<g>
	<path fill="#FFFFFF" d="M14.9,28.8c-7.5,0-13.6-6.1-13.6-13.6c0-7.5,6.1-13.6,13.6-13.6c7.5,0,13.6,6.1,13.6,13.6
		C28.5,22.7,22.4,28.8,14.9,28.8z M14.9,3C8.2,3,2.7,8.5,2.7,15.2c0,6.7,5.5,12.2,12.2,12.2c6.7,0,12.2-5.5,12.2-12.2
		C27.1,8.5,21.7,3,14.9,3z"/>
</g>
<g>
	<path fill="#FFFFFF" d="M15,4.5c1.3,0,2.4,1,2.4,2.4c0,1.4-1.1,2.4-2.4,2.4c-1.4,0-2.4-1-2.4-2.4C12.6,5.6,13.6,4.5,15,4.5z"/>
</g>
<g>
	<path fill="#FFFFFF" d="M18.8,24.6h-7.3v-2.1h1.7v-8.2h-1.7v-1.8c0-0.1,0.1-0.2,0.2-0.2h2.1c1.2,0,2.4,0.1,3.3-1.1v11.4h1.7V24.6z"
		/>
</g>
<g>
	<rect y="0" fill="none" width="30" height="30"/>
</g>
</svg>
