<?xml version="1.0" encoding="utf-8"?>
<!-- Generator: Adobe Illustrator 18.0.0, SVG Export Plug-In . SVG Version: 6.00 Build 0)  -->
<svg version="1.1" id="Layer_1" xmlns="http://www.w3.org/2000/svg" xmlns:xlink="http://www.w3.org/1999/xlink" x="0px" y="0px"
	 viewBox="0 0 30 30" enable-background="new 0 0 30 30" xml:space="preserve">
<g>
	<path fill="#FFFFFF" d="M14.7,3.5c6.3,0,11.5,5.2,11.5,11.5s-5.2,11.5-11.5,11.5S3.2,21.3,3.2,15S8.4,3.5,14.7,3.5 M14.7,1.5
		C7.3,1.5,1.2,7.5,1.2,15s6,13.5,13.5,13.5c7.5,0,13.5-6,13.5-13.5S22.2,1.5,14.7,1.5L14.7,1.5z"/>
	<path fill="#FFFFFF" d="M14.7,5.6c1.1,0,1.9,0.8,1.9,1.9c0,1.1-0.9,2-1.9,2c-1.1,0-1.9-0.8-1.9-2C12.8,6.5,13.6,5.6,14.7,5.6z"/>
	<path fill="#FFFFFF" d="M17.9,23.2h-6.5v-1.8H13v-7.2h-1.5v-1.6c0-0.1,0.1-0.2,0.2-0.2h1.8c1,0,2-0.1,2.9-0.3v9.4h1.5V23.2z"/>
</g>
</svg>
