<?xml version="1.0" encoding="utf-8"?>
<!-- Generator: Adobe Illustrator 18.1.1, SVG Export Plug-In . SVG Version: 6.00 Build 0)  -->
<svg version="1.1" id="Layer_1" xmlns="http://www.w3.org/2000/svg" xmlns:xlink="http://www.w3.org/1999/xlink" x="0px" y="0px"
	 viewBox="0 0 30 30" enable-background="new 0 0 30 30" xml:space="preserve">
<path fill="#FFFFFF" d="M14.9,2.3C7.8,2.3,2,8.1,2,15.2s5.8,12.9,12.9,12.9c7.1,0,12.9-5.8,12.9-12.9S22,2.3,14.9,2.3z M15,4.5
	c1.3,0,2.4,1,2.4,2.4c0,1.4-1.1,2.4-2.4,2.4c-1.4,0-2.4-1-2.4-2.4C12.6,5.6,13.6,4.5,15,4.5z M18.8,24.6h-7.3v-2.1h1.7v-8.2h-1.7
	v-1.8c0-0.1,0.1-0.2,0.2-0.2h2.1c1.2,0,2.4,0.1,3.3-1.1v11.4h1.7V24.6z"/>
</svg>
