<?xml version="1.0" encoding="utf-8"?>
<!-- Generator: Adobe Illustrator 19.1.0, SVG Export Plug-In . SVG Version: 6.00 Build 0)  -->
<svg version="1.1" id="Layer_1" xmlns="http://www.w3.org/2000/svg" xmlns:xlink="http://www.w3.org/1999/xlink" x="0px" y="0px"
	 viewBox="0 0 20 20" enable-background="new 0 0 20 20" xml:space="preserve">
<g>
	<g>
		<path fill="#FFFFFF" d="M1.4,19.8c-0.3,0-0.6-0.1-0.9-0.4s-0.4-0.6-0.4-0.9s0.1-0.6,0.4-0.9L17.7,0.5c0.5-0.5,1.3-0.5,1.8,0
			c0.2,0.2,0.4,0.6,0.4,0.9s-0.1,0.6-0.4,0.9L2.3,19.5C2.1,19.7,1.7,19.8,1.4,19.8z"/>
	</g>
	<g>
		<path fill="#FFFFFF" d="M18.6,19.8c-0.3,0-0.6-0.1-0.9-0.4L0.5,2.3C0.3,2.1,0.2,1.7,0.2,1.4s0.1-0.6,0.4-0.9
			c0.5-0.5,1.3-0.5,1.8,0l17.1,17.1c0.2,0.2,0.4,0.6,0.4,0.9s-0.1,0.6-0.4,0.9S18.9,19.8,18.6,19.8z"/>
	</g>
</g>
</svg>
